<svg width="88" height="42" viewBox="0 0 88 42" fill="none" xmlns="http://www.w3.org/2000/svg">
<path d="M23.9515 30.9356C23.4584 38.0046 19.1236 42 12.3127 42C5.50173 42 0 36.6221 0 28.9828C0 21.3435 5.21123 16 12.3127 16C17.1336 16 19.9566 18.0264 21.4753 19.7222C22.4199 20.777 22.0504 22.4154 20.7441 23.0078C19.9141 23.3833 18.9369 23.2132 18.2798 22.5951C17.3589 21.7285 15.5714 20.6833 12.3127 20.6833C7.94826 20.6833 4.84366 23.3307 4.84366 28.9828C4.84366 34.6349 8.28817 37.2364 12.3127 37.2364C15.7137 37.2364 18.8756 35.7154 19.1987 31.4038H15.1139C13.8996 31.4038 12.9154 30.4522 12.9154 29.278C12.9154 28.1038 13.8996 27.1523 15.1139 27.1523H21.3894C22.8715 27.1523 24.0562 28.3436 23.9979 29.7748L23.9515 30.9356Z" fill="white"/>
<path d="M27 38.6928V11.3072C27 10.0327 28.1189 9 29.5 9C30.8811 9 32 10.0327 32 11.3072V38.6928C32 39.9673 30.8811 41 29.5 41C28.1189 41 27 39.9673 27 38.6928Z" fill="white"/>
<path d="M50.6924 0C49.4175 0 48.3847 1.04535 48.3847 2.33561V32.7853C48.3847 35.483 47.1654 37.6699 44.5 37.6699C41.8346 37.6699 40.6153 35.483 40.6153 32.7853V2.33561C40.6153 1.04535 39.5825 0 38.3077 0C37.0328 0 36 1.04535 36 2.33561V32.4441C36 38.9926 39.2859 42 44.5 42C49.7141 42 53 37.7214 53 32.4441V2.33561C52.9991 1.04535 51.9662 0 50.6924 0Z" fill="white"/>
<path d="M77 30.4431V12.3404C77 11.0475 75.8726 10 74.481 10C73.0894 10 71.962 11.0475 71.962 12.3404V22.4555C70.5375 21.7126 68.8952 21.2886 67.1459 21.2886C60.9897 21.2886 56 25.9246 56 31.6443C56 37.364 60.9897 42 67.1459 42C72.5879 42 77 37.9007 77 32.8446V30.4431ZM66.8489 37.2399C63.5231 37.2399 60.8273 34.7353 60.8273 31.6453C60.8273 28.5553 63.5231 26.0506 66.8489 26.0506C69.6721 26.0506 71.962 28.1771 71.962 30.8002V31.6453V32.4894C71.962 35.1134 69.6732 37.2399 66.8489 37.2399Z" fill="white"/>
<path d="M84 41C86.2091 41 88 39.433 88 37.5C88 35.567 86.2091 34 84 34C81.7909 34 80 35.567 80 37.5C80 39.433 81.7909 41 84 41Z" fill="white"/>
</svg>
