<svg width="313" height="423" viewBox="0 0 313 423" fill="none" xmlns="http://www.w3.org/2000/svg">
<path d="M78.1686 235.009H15.6011V423H78.1686V235.009Z" fill="#FDAB85"/>
<path d="M156.5 172.373H0V235.009H156.5V172.373Z" fill="#FDAB85"/>
<path d="M78.25 0C35.0215 0 0 35.0602 0 78.3363V156.673H62.5675V78.3363C62.5675 69.7137 69.5555 62.6365 78.25 62.6365C86.8632 62.6365 93.9325 69.6323 93.9325 78.3363V156.673H156.5V78.3363C156.5 35.0602 121.478 0 78.25 0Z" fill="#FDAB85"/>
<path d="M297.318 344.664C297.318 301.387 262.296 266.327 219.068 266.327H156.5V328.964H219.068C227.681 328.964 234.75 335.96 234.75 344.664C234.75 353.368 227.681 360.363 219.068 360.363H93.8513V423H219.068C262.296 423 297.318 387.94 297.318 344.664Z" fill="#FDAB85"/>
<path d="M313 250.627C313 207.351 277.978 172.291 234.75 172.291H172.183V234.928H234.75C243.363 234.928 250.433 241.923 250.433 250.627C250.433 259.25 243.444 266.327 234.75 266.327H93.8513V328.964H234.669C277.979 328.964 313 293.904 313 250.627Z" fill="#FDAB85"/>
</svg>
