<svg width="867" height="335" viewBox="0 0 867 335" fill="none" xmlns="http://www.w3.org/2000/svg">
<path fill-rule="evenodd" clip-rule="evenodd" d="M198.523 0.260376C196.1 0.260376 193.803 0.794737 191.758 1.5177C196.163 4.47241 198.617 8.3701 199.844 12.8336C199.939 13.4623 200.096 13.8709 200.159 14.4681C200.222 15.0654 200.348 15.5054 200.348 16.0398C200.662 23.678 198.365 24.621 196.698 29.1474C195.515 31.8817 195.009 34.8603 195.223 37.8313C195.436 40.8022 196.363 43.6781 197.925 46.2155C198.203 46.8893 198.551 47.532 198.963 48.1329C195.659 26.1927 213.972 22.8922 217.37 16.0712C217.622 9.78459 212.65 6.10692 208.78 3.30938C205.709 1.37527 202.153 0.350729 198.523 0.354668V0.260376ZM226.117 5.19536C225.802 7.17565 226.023 6.67272 225.928 7.71001L225.739 9.9732L225.11 12.0478C224.918 12.7517 224.687 13.4443 224.418 14.1224L223.474 16.1026C223.222 16.417 223.034 16.7942 222.782 17.1399L222.247 17.9258L220.988 19.6546C220.453 20.1889 220.044 20.7862 219.415 21.2262C218.786 21.6663 218.377 22.2635 217.779 22.7036C215.954 24.0866 213.877 25.1239 211.958 26.4756C211.329 26.9156 210.699 27.2614 210.227 27.7329C209.755 28.2044 209.095 28.613 208.591 29.1159C208.088 29.6189 207.553 30.1532 207.018 30.7505C206.483 31.3477 206.074 31.882 205.759 32.4793L204.501 34.3024L203.557 36.2827L202.865 38.263L202.235 40.4633C202.141 40.7776 202.141 41.2491 202.047 41.5949C201.952 41.9406 201.952 42.2864 201.858 42.6322L201.763 44.8325C201.751 45.3581 201.783 45.8838 201.858 46.4041C201.858 47.0957 201.952 47.7872 202.11 48.6044C202.267 49.4217 202.361 49.9875 202.55 50.679L203.242 52.7536C203.431 53.1937 203.683 53.6337 203.872 54.0109L183.923 46.2784L173.854 43.6694L168.38 42.4121C163.156 41.3765 157.885 40.6002 152.584 40.0861C147.276 39.5015 141.94 39.2077 136.6 39.206L125.273 39.646C119.949 40.0283 114.646 40.6682 109.383 41.5634L105.482 42.255L97.6787 43.9838L93.7771 45.0211L90.0013 46.6556L87.1695 47.9129L84.3377 49.296C84.086 49.3903 83.8972 49.4846 83.7084 49.5474L81.0024 50.9305C80.3732 51.182 79.7439 51.5592 79.2719 51.8106C79.0202 51.9992 78.6426 52.1249 78.4853 52.2507L76.2198 53.508C75.4332 53.9481 74.741 54.3881 74.1432 54.7653L72.4126 56.0226L70.5248 57.4057L69.0459 58.663C68.102 59.3546 67.6615 59.7946 67.221 60.1404L65.3331 61.9635L63.6025 63.598L62.1237 65.1697C61.9349 65.3583 61.6832 65.484 61.4944 65.704C61.0539 66.2384 60.5505 66.7413 60.0156 67.2757L57.6872 69.7903L52.9675 74.2853C51.4331 75.6526 49.8148 76.9228 48.122 78.0887L42.8989 81.3891C41.1254 82.3628 39.2974 83.2338 37.424 83.9981C35.5991 84.7839 33.6483 85.4754 31.7604 86.0727C28.1105 86.8585 24.3977 88.3359 21.1568 88.5873C20.4646 88.5873 19.678 88.7759 18.9543 88.8388L16.7518 89.3731L14.6751 90.159C13.9829 90.4104 13.2907 90.7876 12.5985 91.102C11.9063 91.4163 11.3399 91.8878 10.7106 92.3593C10.095 92.8045 9.51627 93.2986 8.98005 93.8366C8.35076 94.2767 7.72147 94.8739 7.2495 95.4083L5.77066 97.1371C5.33016 97.8286 4.82673 98.3944 4.51208 99.1174C4.19744 99.8404 3.63107 100.375 3.2535 101.098L2.30956 103.361L1.52295 105.624L1.08244 107.699C0.830728 108.736 0.830728 109.773 0.767799 110.308C0.70487 110.842 0.57901 111.439 0.57901 112.036C0.57901 112.351 0.579011 112.822 0.673404 113.168C0.767798 113.797 0.862191 114.3 0.98805 114.803L1.61734 116.374C1.86906 117.003 2.24663 117.506 2.56128 118.009L3.694 119.58L5.17284 120.963C5.70774 121.498 6.21117 121.906 6.80899 122.346C8.88565 124.17 9.42056 124.767 12.095 126.118C12.5356 126.37 12.9761 126.558 13.4795 126.81C13.92 128.067 14.1088 128.696 14.2661 129.419C14.4234 130.142 14.7066 130.896 14.9583 131.493L15.6505 133.065L16.9091 135.391L18.1677 137.214L19.6465 138.849C20.1814 139.383 20.6849 139.792 21.2827 140.326L23.0132 141.583C23.6215 142.012 24.2634 142.39 24.9326 142.715C25.5619 143.029 26.1912 143.407 26.9149 143.658C27.4498 143.91 28.0476 144.098 28.6454 144.287C29.2432 144.475 29.7781 144.601 30.1242 144.727C29.8725 149.442 29.8096 154.157 30.4389 155.414C31.2255 157.143 35.0327 151.862 38.8714 145.796C38.3365 152.082 37.9904 158.809 38.8714 160.883C39.7524 162.958 45.0385 156.294 49.5693 148.813C111.114 134.605 167.247 177.103 173.225 237.077C172.092 227.71 160.545 222.524 155.29 223.812C152.679 230.225 148.274 238.46 141.131 243.615C141.749 237.821 141.452 231.966 140.25 226.264C138.362 234.248 134.587 241.666 129.489 248.11C125.514 248.38 121.533 247.667 117.9 246.033C114.267 244.399 111.093 241.895 108.66 238.743C108.345 238.492 108.219 237.957 107.968 237.612L107.055 235.474C106.803 234.845 106.615 234.217 106.52 233.651C106.426 233.085 106.426 232.394 106.426 231.765V230.508C106.52 229.879 106.678 229.25 106.866 228.685L107.496 226.861C107.81 226.233 108.125 225.604 108.534 225.038C110.013 220.889 110.013 217.494 107.275 215.514C106.74 215.2 106.237 214.885 105.639 214.634C105.325 214.54 104.853 214.382 104.506 214.32L103.814 214.068L101.989 213.628C101.396 213.46 100.781 213.375 100.164 213.377C99.5296 213.27 98.8884 213.207 98.245 213.188C97.8045 213.188 97.364 213.282 96.9864 213.282C96.2942 213.282 95.7279 213.377 95.0986 213.534L93.2736 213.848L91.4487 214.477L89.7181 215.263L88.082 216.143C67.8503 229.345 79.9012 260.149 93.7456 269.139C88.5225 270.082 83.2364 271.213 81.7891 272.345C85.3446 274.765 89.2462 276.683 93.3366 278.632L107.401 282.781C114.582 284.319 121.939 284.869 129.269 284.415C167.719 281.712 199.246 252.511 204.973 214.005L205.508 216.268L206.294 221.109C206.483 221.989 206.546 222.744 206.609 223.435L206.798 226.044L206.987 228.873V230.256C206.987 230.696 207.081 231.199 207.081 231.639C207.081 232.079 206.987 232.677 206.987 233.211V234.468C206.987 235.097 206.892 235.6 206.892 236.197C206.892 236.511 206.892 236.889 206.798 237.329L206.703 239.215C206.609 239.466 206.609 239.749 206.609 240L206.357 241.981C206.357 242.232 206.357 242.515 206.263 242.767L205.948 245.281V245.438L205.413 247.859L204.878 250.468L203.494 255.811L202.613 258.577L200.725 263.607L199.687 266.121L198.428 268.542C198.334 268.793 198.239 268.982 198.176 269.17C192.391 280.747 183.976 290.812 173.603 298.56C172.91 299 172.218 299.503 171.526 300.038C171.337 300.226 171.086 300.289 170.897 300.478L169.009 301.735L169.261 302.269H169.355L173.005 301.735H173.099L179.864 300.478C180.493 300.383 181.123 300.226 181.752 300.038L183.011 299.786L184.836 299.472L186.409 299.032C195.01 296.936 203.428 294.15 211.58 290.702C197.635 309.686 179.088 324.818 157.682 334.677C167.704 334.014 177.628 332.296 187.29 329.553C222.278 319.243 251.698 295.731 269.318 264.078C265.762 284.101 257.77 303.181 245.971 319.84C254.404 314.277 262.113 307.896 269.161 300.603C288.606 280.298 301.38 254.554 305.659 226.893C308.617 240.598 309.435 254.743 308.177 268.699C370.854 181.378 313.4 90.8505 289.298 66.9928C288.983 67.6214 288.857 68.6273 288.794 69.696L287.913 75.5112L286.435 81.232L284.358 86.7956L281.746 92.0764L278.6 97.0114L275.044 101.726C273.786 103.298 272.338 104.681 270.954 106.064L268.437 108.264L266.455 109.993C264.91 111.222 263.292 112.356 261.609 113.388L256.48 116.343L251.006 118.763C249.159 119.461 247.279 120.07 245.373 120.586L239.552 121.844C237.57 122.158 235.556 122.378 233.637 122.535L229.484 122.724C227.501 122.724 225.488 122.535 223.568 122.409C221.579 122.262 219.603 121.979 217.653 121.561C215.671 121.246 213.751 120.68 211.832 120.083H211.738L217.464 119.392L223.285 118.134L228.949 116.311C230.837 115.62 232.725 114.74 234.424 113.891C236.211 113.023 237.954 112.069 239.647 111.031L244.492 107.887C246.051 106.681 247.532 105.379 248.929 103.99C250.38 102.662 251.746 101.244 253.019 99.7461L256.669 95.0311C256.858 94.7796 256.984 94.4024 257.204 94.151L259.721 90.0018L262.333 84.721L264.409 79.1574C265.039 77.3343 265.448 75.3854 265.888 73.4994L266.769 67.6843L267.084 61.7749L266.927 57.6257L266.234 51.8106L264.976 45.9955L263.088 40.4318C262.396 38.6087 261.515 36.7856 260.665 35.0882L257.707 29.9646L254.561 25.1868L250.565 20.7862L248.3 18.5859L236.249 10.0989C235.619 9.7846 235.116 9.47026 234.518 9.2188C231.686 7.39568 228.949 6.45269 226.274 5.57256L226.117 5.19536Z" fill="#EA2845"/>
<path d="M399.864 226.233C401.879 225.276 404.003 224.569 406.189 224.127C411.066 223.341 413.835 222.681 414.621 222.146C415.943 221.361 416.824 220.26 417.264 219.254C417.799 217.369 418.051 213.597 418.051 207.53V196.057L418.177 186.69L417.768 172.702V164.435C417.768 158.903 417.359 154.282 416.446 150.856C416.194 149.536 414.999 148.216 413.142 146.896C410.625 145.01 406.849 143.344 400.62 141.615L400.494 135.328L403.514 134.7C404.458 134.574 408.014 133.631 414.212 132.059L423.589 128.381L425.791 127.187C426.917 126.23 428.105 125.348 429.347 124.547C432.902 121.748 436.094 118.517 438.849 114.928L445.834 114.394L445.582 129.293C445.457 130.739 445.456 131.933 445.456 132.845L445.582 138.912C452.977 132.625 459.584 128.224 465.657 125.71C472.7 122.602 480.298 120.945 487.997 120.838C495.75 120.682 503.374 122.837 509.896 127.03C516.063 131.116 520.279 135.831 522.482 141.175C524.684 146.518 525.377 157.52 525.377 173.739L524.842 216.991C524.812 218.717 525.178 220.427 525.911 221.989C528.248 223.058 530.747 223.727 533.306 223.969L539.787 225.164C540.612 226.411 541.03 227.882 540.983 229.376L540.857 233.714L514.867 231.828L507.221 232.079H501.149L483.592 233.399H479.092C478.966 232.205 478.966 231.419 478.966 230.759L479.218 225.604C480.414 225.353 483.56 224.975 488.469 224.284C489.79 224.158 491.237 223.749 492.968 223.341C494.699 222.712 495.737 221.895 495.989 221.235C496.618 219.663 497.058 216.897 497.058 212.654L496.807 195.523L496.933 180.215C496.933 161.481 495.863 149.882 493.786 145.418C490.64 138.692 485.354 135.36 478.62 135.36C473.291 135.484 468.056 136.795 463.297 139.194C457.245 142.153 451.685 146.022 446.81 150.668L446.558 152.868L446.81 161.166L446.684 169.967L447.219 191.185L446.967 194.485C446.967 208.85 447.502 217.023 448.697 218.877C449.893 220.732 454.235 222.712 461.912 224.944L462.322 228.244C462.322 229.313 461.912 230.885 461.378 233.116L454.392 233.242C451.474 233.153 448.564 232.891 445.677 232.456L431.14 232.331L400.525 233.274C400.159 232.398 399.977 231.456 399.99 230.508L400.116 226.295L399.864 226.233ZM555.74 163.178C558.1 155.634 560.082 150.668 561.938 148.279C566.815 141.049 572.101 135.705 577.671 131.305C583.24 126.904 588.369 124.578 592.837 123.258C597.45 121.771 602.246 120.925 607.09 120.743C613.838 120.56 620.582 121.226 627.164 122.724C631.777 123.696 636.165 125.531 640.096 128.13C644.44 131.128 648.42 134.62 651.959 138.534C655.065 142.269 657.522 146.498 659.227 151.045C661.333 156.559 662.451 162.4 662.531 168.301L647.742 168.05C638.809 167.845 629.882 167.447 620.966 166.856L610.394 166.321L596.14 166.447H584.656L584.404 169.59C584.404 174.305 585.033 179.209 586.135 184.49C587.236 189.77 589.029 194.108 591.295 198.069C593.535 201.897 596.444 205.293 599.885 208.096C603.031 210.988 606.87 212.968 610.457 214.288L618.103 216.803L631.821 216.174C635.603 215.402 639.31 214.298 642.897 212.874C647.034 210.898 650.965 208.518 654.633 205.77L662.688 212.056C654.916 220.48 646.704 226.83 638.397 230.916C630.091 235.002 620.714 236.574 610.079 236.574C603.094 236.574 597.399 236.04 592.931 234.688C587.231 233.202 581.826 230.757 576.947 227.459C572.17 224.063 567.928 219.974 564.361 215.325C560.585 210.61 558.288 205.424 556.589 200.3C554.481 193.574 553.286 188.167 553.286 184.207C553.216 177.214 553.849 170.233 555.173 163.367L555.74 163.178ZM632.828 157.52C632.702 152.491 631.758 147.901 629.933 143.281C628.108 138.66 625.214 135.36 621.218 132.908C617.768 130.505 613.686 129.171 609.481 129.073C603.188 129.073 598.248 131.713 593.371 136.837C588.494 141.961 585.977 149.41 585.317 158.054L615.523 158.18L623.703 157.771L629.241 157.363L632.797 157.489L632.828 157.52ZM683.171 195.931C685.084 195.497 687.032 195.234 688.992 195.145L691.761 195.271L692.957 196.591L702.459 211.899C705.48 215.451 708.532 218.374 711.898 220.606C713.881 221.926 717.059 223.498 721.401 224.944C724.411 226.01 727.584 226.542 730.777 226.516C736.031 226.65 741.135 224.759 745.031 221.235C748.995 217.557 751.324 213.691 751.324 209.51C751.324 206.744 750.537 204.355 749.121 202.406C747.705 200.458 744.622 198.446 740.154 196.12C737.951 195.177 732.382 193.605 723.383 191.405L708.028 187.067C703.968 185.553 700.215 183.317 696.953 180.466C693.855 177.799 691.339 174.525 689.559 170.848C687.356 165.818 686.412 161.481 686.412 158.274C686.412 151.548 687.482 146.141 689.307 141.803C691.313 137.518 694.134 133.664 697.614 130.456C700.131 127.941 703.907 125.741 709.098 123.729C714.402 121.707 720.035 120.684 725.711 120.712C733.143 120.612 740.568 121.191 747.894 122.441C753.482 123.383 758.907 125.119 764.004 127.596C764.633 129.576 765.325 134.322 766.364 141.583L767.811 154.628C767.811 155.257 767.685 155.948 767.402 156.608C765.517 157.217 763.56 157.577 761.581 157.677C760.794 157.677 759.473 157.551 757.742 157.426C756.614 155.628 755.564 153.782 754.596 151.893C750.38 143.972 746.006 138.44 741.538 135.297C737.07 132.153 732.036 130.425 725.806 130.425C719.576 130.425 714.573 132.311 710.483 135.705C708.985 137.014 707.803 138.643 707.024 140.472C706.245 142.301 705.889 144.282 705.983 146.267C705.983 149.159 707.556 152.082 710.703 155.068C713.849 158.054 719.135 160.475 726.813 162.046C738.455 164.561 747.013 167.201 752.425 169.685C760.354 173.362 766.018 177.857 769.195 182.886C772.373 187.916 774.072 193.699 774.072 200.3C774.072 210.579 770.108 219.16 762.336 226.013C754.564 232.865 743.457 236.165 728.543 236.165C723.472 235.926 718.413 235.485 713.377 234.845C709.696 234.437 705.322 233.525 700.32 232.205C697.014 231.069 693.759 229.789 690.566 228.37C689.74 227.893 689.023 227.251 688.457 226.484C688.206 225.698 687.513 221.989 686.727 215.42L684.524 196.025L683.171 195.931ZM791.913 132.625C802.296 128.287 809.848 123.918 814.473 120.052C819.098 116.185 824.101 108.83 829.387 99.3059H836.939C837.731 101.645 838.135 104.098 838.134 106.567L838.009 117.38L837.599 125.144L837.725 128.161L840.746 128.287L853.143 127.753L863.054 127.501C863.579 129.57 863.885 131.687 863.967 133.819C863.967 135.925 863.558 138.314 862.897 140.923C860.709 141.249 858.501 141.428 856.289 141.458C855.66 141.458 854.181 141.458 852.073 141.206H845.214L842.823 141.08L836.53 141.332L836.278 191.625L836.813 209.95C837.374 212.472 838.457 214.849 839.991 216.928C842.101 217.901 844.4 218.395 846.724 218.374C849.084 218.374 850.815 218.123 852.01 217.746C853.206 217.369 855.157 216.017 857.831 213.911C858.366 213.376 859.279 212.842 860.348 212.025C862.323 213.451 864.1 215.132 865.634 217.023L866.169 218.594C862.922 223.564 858.358 227.536 852.986 230.067C847.448 232.834 841.501 234.154 835.177 234.154C826.87 234.154 820.262 231.513 815.102 226.39C809.942 221.266 807.456 213.062 807.456 202.123L807.991 178.926V141.175L803.901 141.049L794.273 141.175L792.542 140.766C792.053 140.134 791.778 139.364 791.756 138.566L792.007 132.279L791.913 132.625Z" fill="#EA2845"/>
</svg>
